name Walk7.mot
datacolumns 19
datarows 27
range 0.82000000 0.84600000
endheader

                time	   L_ground_force_vx	   L_ground_force_vy	   L_ground_force_vz	   L_ground_force_px	   L_ground_force_py	   L_ground_force_pz	   R_ground_force_vx	   R_ground_force_vy	   R_ground_force_vz	   R_ground_force_px	   R_ground_force_py	   R_ground_force_pz	   L_ground_torque_x	   L_ground_torque_y	   L_ground_torque_z	   R_ground_torque_x	   R_ground_torque_y	   R_ground_torque_z	
          0.82000000	          0.00000000	          0.00000000	          0.00000000	          0.00000000	          0.00000000	          0.00000000	          0.00000000	          0.00000000	          0.00000000	          0.00000000	          0.00000000	          0.00000000	          0.00000000	          0.00000000	          0.00000000	          0.00000000	          0.00000000	          0.00000000	
          0.82100000	          0.00000000	          0.00000000	          0.00000000	          0.00000000	          0.00000000	          0.00000000	          0.00000000	          0.00000000	          0.00000000	          0.00000000	          0.00000000	          0.00000000	          0.00000000	          0.00000000	          0.00000000	          0.00000000	          0.00000000	          0.00000000	
          0.82200000	          0.00000000	          0.00000000	          0.00000000	          0.00000000	          0.00000000	          0.00000000	          0.00000000	          0.00000000	          0.00000000	          0.00000000	          0.00000000	          0.00000000	          0.00000000	          0.00000000	          0.00000000	          0.00000000	          0.00000000	          0.00000000	
          0.82300000	          0.00000000	          0.00000000	          0.00000000	          0.00000000	          0.00000000	          0.00000000	          0.00000000	          0.00000000	          0.00000000	          0.00000000	          0.00000000	          0.00000000	          0.00000000	          0.00000000	          0.00000000	          0.00000000	          0.00000000	          0.00000000	
          0.82400000	          0.00000000	          0.00000000	          0.00000000	          0.00000000	          0.00000000	          0.00000000	         -4.37402823	         12.77370157	         -0.35412585	         -0.35823260	          0.00000000	         -0.01306429	          0.00000000	          0.00000000	          0.00000000	          0.00000000	          0.23366669	          0.00000000	
          0.82500000	          0.00000000	          0.00000000	          0.00000000	          0.00000000	          0.00000000	          0.00000000	         -6.94959283	         30.31416458	         -0.28868239	         -0.36439632	          0.00000000	         -0.01385245	          0.00000000	          0.00000000	          0.00000000	          0.00000000	          0.29001622	          0.00000000	
          0.82600000	          0.00000000	          0.00000000	          0.00000000	          0.00000000	          0.00000000	          0.00000000	        -10.33047430	         58.48958096	         -0.13366395	         -0.36680456	          0.00000000	         -0.01404735	          0.00000000	          0.00000000	          0.00000000	          0.00000000	          0.31119596	          0.00000000	
          0.82700000	          0.00000000	          0.00000000	          0.00000000	          0.00000000	          0.00000000	          0.00000000	        -14.71842647	         99.63632063	          0.01590070	         -0.36767531	          0.00000000	         -0.01415638	          0.00000000	          0.00000000	          0.00000000	          0.00000000	          0.31037502	          0.00000000	
          0.82800000	          0.00000000	          0.00000000	          0.00000000	          0.00000000	          0.00000000	          0.00000000	        -20.07593043	        154.08607835	         -0.01107179	         -0.36785568	          0.00000000	         -0.01431290	          0.00000000	          0.00000000	          0.00000000	          0.00000000	          0.32775494	          0.00000000	
          0.82900000	          0.00000000	          0.00000000	          0.00000000	          0.00000000	          0.00000000	          0.00000000	        -25.93274385	        218.59143700	         -0.43398972	         -0.36776076	          0.00000000	         -0.01446620	          0.00000000	          0.00000000	          0.00000000	          0.00000000	          0.39140342	          0.00000000	
          0.83000000	          0.00000000	          0.00000000	          0.00000000	          0.00000000	          0.00000000	          0.00000000	        -31.48803334	        286.08997783	         -1.49065075	         -0.36756091	          0.00000000	         -0.01454013	          0.00000000	          0.00000000	          0.00000000	          0.00000000	          0.49494702	          0.00000000	
          0.83100000	          0.00000000	          0.00000000	          0.00000000	          0.00000000	          0.00000000	          0.00000000	        -35.98363971	        347.61310578	         -3.36859587	         -0.36730508	          0.00000000	         -0.01451108	          0.00000000	          0.00000000	          0.00000000	          0.00000000	          0.61456954	          0.00000000	
          0.83200000	          0.00000000	          0.00000000	          0.00000000	          0.00000000	          0.00000000	          0.00000000	        -39.03971435	        395.52572984	         -6.09819714	         -0.36701157	          0.00000000	         -0.01439240	          0.00000000	          0.00000000	          0.00000000	          0.00000000	          0.72734862	          0.00000000	
          0.83300000	          0.00000000	          0.00000000	          0.00000000	          0.00000000	          0.00000000	          0.00000000	        -40.68327885	        426.06819179	         -9.50986495	         -0.36670182	          0.00000000	         -0.01418038	          0.00000000	          0.00000000	          0.00000000	          0.00000000	          0.81236796	          0.00000000	
          0.83400000	          0.00000000	          0.00000000	          0.00000000	          0.00000000	          0.00000000	          0.00000000	        -41.17362278	        439.92978723	        -13.31389290	         -0.36639254	          0.00000000	         -0.01383958	          0.00000000	          0.00000000	          0.00000000	          0.00000000	          0.85253682	          0.00000000	
          0.83500000	          0.00000000	          0.00000000	          0.00000000	          0.00000000	          0.00000000	          0.00000000	        -40.84688656	        441.13869996	        -17.22175324	         -0.36608421	          0.00000000	         -0.01334675	          0.00000000	          0.00000000	          0.00000000	          0.00000000	          0.84045957	          0.00000000	
          0.83600000	          0.00000000	          0.00000000	          0.00000000	          0.00000000	          0.00000000	          0.00000000	        -40.03756907	        435.26516270	        -21.01827315	         -0.36575116	          0.00000000	         -0.01273517	          0.00000000	          0.00000000	          0.00000000	          0.00000000	          0.78207137	          0.00000000	
          0.83700000	          0.00000000	          0.00000000	          0.00000000	          0.00000000	          0.00000000	          0.00000000	        -39.05542661	        427.77934893	        -24.57539143	         -0.36533452	          0.00000000	         -0.01211267	          0.00000000	          0.00000000	          0.00000000	          0.00000000	          0.70002123	          0.00000000	
          0.83800000	          0.00000000	          0.00000000	          0.00000000	          0.00000000	          0.00000000	          0.00000000	        -38.19934140	        422.92817021	        -27.82359931	         -0.36477892	          0.00000000	         -0.01164651	          0.00000000	          0.00000000	          0.00000000	          0.00000000	          0.63296221	          0.00000000	
          0.83900000	          0.00000000	          0.00000000	          0.00000000	          0.00000000	          0.00000000	          0.00000000	        -37.75321357	        423.15941318	        -30.69226523	         -0.36410572	          0.00000000	         -0.01146492	          0.00000000	          0.00000000	          0.00000000	          0.00000000	          0.61950541	          0.00000000	
          0.84000000	          0.00000000	          0.00000000	          0.00000000	          0.00000000	          0.00000000	          0.00000000	        -37.92286081	        429.09042903	        -33.07000359	         -0.36341758	          0.00000000	         -0.01154782	          0.00000000	          0.00000000	          0.00000000	          0.00000000	          0.67088574	          0.00000000	
          0.84100000	          0.00000000	          0.00000000	          0.00000000	          0.00000000	          0.00000000	          0.00000000	        -38.78139823	        439.95932432	        -34.84813348	         -0.36281537	          0.00000000	         -0.01176439	          0.00000000	          0.00000000	          0.00000000	          0.00000000	          0.76451830	          0.00000000	
          0.84200000	          0.00000000	          0.00000000	          0.00000000	          0.00000000	          0.00000000	          0.00000000	        -40.30042109	        454.29059605	        -36.00069545	         -0.36233961	          0.00000000	         -0.01199082	          0.00000000	          0.00000000	          0.00000000	          0.00000000	          0.87040065	          0.00000000	
          0.84300000	          0.00000000	          0.00000000	          0.00000000	          0.00000000	          0.00000000	          0.00000000	        -42.41643707	        470.43519072	        -36.59114114	         -0.36198181	          0.00000000	         -0.01214999	          0.00000000	          0.00000000	          0.00000000	          0.00000000	          0.96867139	          0.00000000	
          0.84400000	          0.00000000	          0.00000000	          0.00000000	          0.00000000	          0.00000000	          0.00000000	        -45.05009626	        486.84638653	        -36.72403656	         -0.36172094	          0.00000000	         -0.01219269	          0.00000000	          0.00000000	          0.00000000	          0.00000000	          1.04172363	          0.00000000	
          0.84500000	          0.00000000	          0.00000000	          0.00000000	          0.00000000	          0.00000000	          0.00000000	        -48.09497439	        502.21682759	        -36.52589625	         -0.36153321	          0.00000000	         -0.01210323	          0.00000000	          0.00000000	          0.00000000	          0.00000000	          1.07584141	          0.00000000	
          0.84600000	          0.00000000	          0.00000000	          0.00000000	          0.00000000	          0.00000000	          0.00000000	        -51.43078808	        515.59710590	        -36.12987503	         -0.36137060	          0.00000000	         -0.01192337	          0.00000000	          0.00000000	          0.00000000	          0.00000000	          1.07534310	          0.00000000	
